<svg width="137" height="85" viewBox="0 0 137 85" fill="none" xmlns="http://www.w3.org/2000/svg">
<path opacity="0.4" d="M78.61 51.3337H58.3878C50.4795 51.3337 45.1667 45.7871 45.1667 37.5303V18.4727C45.1667 10.2159 50.4795 4.66699 58.3878 4.66699H78.6123C86.5207 4.66699 91.8334 10.2159 91.8334 18.4727V37.5303C91.8334 45.7871 86.5207 51.3337 78.61 51.3337" fill="#04009A"/>
<path fill-rule="evenodd" clip-rule="evenodd" d="M66.7385 20.2421C66.7385 23.4387 64.1368 26.0404 60.9401 26.0404C57.7411 26.0404 55.1418 23.4387 55.1418 20.2421C55.1418 17.0454 57.7411 14.4414 60.9401 14.4414C64.1368 14.4414 66.7385 17.0454 66.7385 20.2421ZM85.7677 32.8715C86.3114 33.3988 86.7011 34.0008 86.9577 34.6425C87.7347 36.5838 87.3311 38.9171 86.5004 40.8398C85.5157 43.1288 83.6304 44.8578 81.2551 45.6138C80.2004 45.9521 79.0944 46.0968 77.9907 46.0968H58.4351C56.4891 46.0968 54.7671 45.6441 53.3554 44.7948C52.4711 44.2628 52.3147 43.0378 52.9704 42.2398C54.0671 40.9098 55.1497 39.5751 56.2417 38.2288C58.3231 35.6528 59.7254 34.9061 61.2841 35.5618C61.9164 35.8325 62.5511 36.2408 63.2044 36.6701C64.9451 37.8228 67.3647 39.4048 70.5521 37.6875C72.7308 36.4962 73.9954 34.4576 75.0962 32.6832L75.1184 32.6475C75.1925 32.5287 75.2659 32.41 75.3392 32.2917C75.7135 31.6869 76.0821 31.0912 76.4997 30.5428C77.0177 29.8638 78.9404 27.7405 81.4254 29.2525C83.0097 30.2045 84.3421 31.4925 85.7677 32.8715Z" fill="#04009A"/>
<g clip-path="url(#clip0_2345_66832)">
<path d="M29.6666 78.6667L26.9999 76L24.3333 78.6667" stroke="#04009A" stroke-width="2" stroke-linecap="round" stroke-linejoin="round"/>
<path d="M27 76V82" stroke="#04009A" stroke-width="2" stroke-linecap="round" stroke-linejoin="round"/>
<path d="M32.5933 80.2603C33.2435 79.9058 33.7572 79.3449 34.0532 78.6661C34.3493 77.9872 34.4108 77.2291 34.2281 76.5114C34.0454 75.7937 33.629 75.1573 33.0444 74.7026C32.4599 74.2479 31.7406 74.0008 31 74.0003H30.16C29.9582 73.2198 29.5821 72.4952 29.0599 71.881C28.5378 71.2667 27.8832 70.7789 27.1454 70.4541C26.4075 70.1292 25.6057 69.9759 24.8001 70.0056C23.9944 70.0353 23.206 70.2472 22.4941 70.6254C21.7822 71.0037 21.1652 71.5384 20.6897 72.1894C20.2142 72.8404 19.8924 73.5907 19.7486 74.3839C19.6048 75.1771 19.6427 75.9927 19.8594 76.7692C20.0762 77.5456 20.4661 78.2629 21 78.867" stroke="#04009A" stroke-width="2" stroke-linecap="round" stroke-linejoin="round"/>
<path d="M29.6666 78.6667L26.9999 76L24.3333 78.6667" stroke="#04009A" stroke-width="2" stroke-linecap="round" stroke-linejoin="round"/>
</g>
<path d="M51.9079 82.1392C51.2252 82.1392 50.6153 82.0215 50.0784 81.7862C49.5448 81.5509 49.1222 81.2244 48.8106 80.8068C48.5024 80.3859 48.3367 79.8987 48.3135 79.3452H49.8746C49.8944 79.6468 49.9955 79.9086 50.1778 80.1307C50.3634 80.3494 50.6054 80.5185 50.9037 80.6378C51.202 80.7571 51.5334 80.8168 51.898 80.8168C52.299 80.8168 52.6537 80.7472 52.9619 80.608C53.2735 80.4687 53.5171 80.2749 53.6927 80.0263C53.8684 79.7744 53.9562 79.4844 53.9562 79.1562C53.9562 78.8149 53.8684 78.5149 53.6927 78.2564C53.5204 77.9946 53.2668 77.7891 52.9321 77.6399C52.6006 77.4908 52.1996 77.4162 51.729 77.4162H50.8689V76.1634H51.729C52.1068 76.1634 52.4382 76.0954 52.7233 75.9595C53.0116 75.8236 53.237 75.6347 53.3994 75.3928C53.5618 75.1475 53.643 74.8608 53.643 74.5327C53.643 74.2178 53.5718 73.9444 53.4292 73.7124C53.29 73.477 53.0912 73.2931 52.8327 73.1605C52.5774 73.0279 52.2758 72.9616 51.9278 72.9616C51.5964 72.9616 51.2865 73.023 50.9981 73.1456C50.7131 73.2649 50.4811 73.4373 50.3021 73.6626C50.1231 73.8847 50.027 74.1515 50.0138 74.4631H48.5273C48.5438 73.9129 48.7062 73.429 49.0145 73.0114C49.326 72.5937 49.737 72.2673 50.2474 72.032C50.7578 71.7966 51.3246 71.679 51.9477 71.679C52.6006 71.679 53.1641 71.8066 53.6381 72.0618C54.1153 72.3137 54.4832 72.6501 54.7417 73.071C55.0036 73.492 55.1328 73.9527 55.1295 74.4531C55.1328 75.0232 54.9738 75.5071 54.6523 75.9048C54.3341 76.3026 53.9098 76.5694 53.3795 76.7053V76.7848C54.0557 76.8875 54.5793 77.156 54.9506 77.5902C55.3251 78.0244 55.5107 78.563 55.5074 79.206C55.5107 79.7661 55.3549 80.2682 55.04 80.7124C54.7285 81.1565 54.3026 81.5062 53.7623 81.7614C53.2221 82.0133 52.604 82.1392 51.9079 82.1392ZM59.6288 82.169C59.1449 82.169 58.7074 82.0795 58.3163 81.9006C57.9252 81.7183 57.6153 81.4548 57.3866 81.1101C57.1613 80.7654 57.0486 80.3428 57.0486 79.8423C57.0486 79.4115 57.1314 79.0568 57.2971 78.7784C57.4629 78.5 57.6866 78.2796 57.9683 78.1172C58.25 77.9548 58.5649 77.8321 58.9129 77.7493C59.2609 77.6664 59.6156 77.6035 59.9768 77.5604C60.4342 77.5073 60.8054 77.4643 61.0905 77.4311C61.3755 77.3946 61.5827 77.3366 61.7119 77.2571C61.8412 77.1776 61.9058 77.0483 61.9058 76.8693V76.8345C61.9058 76.4003 61.7832 76.0639 61.5379 75.8253C61.296 75.5866 60.9347 75.4673 60.4541 75.4673C59.9536 75.4673 59.5592 75.5784 59.2709 75.8004C58.9858 76.0192 58.7886 76.2628 58.6792 76.5312L57.2822 76.2131C57.4479 75.7491 57.6899 75.3745 58.0081 75.0895C58.3296 74.8011 58.6991 74.5923 59.1167 74.4631C59.5344 74.3305 59.9735 74.2642 60.4342 74.2642C60.7391 74.2642 61.0623 74.3007 61.4037 74.3736C61.7484 74.4432 62.0699 74.5724 62.3682 74.7614C62.6698 74.9503 62.9167 75.2204 63.1089 75.5717C63.3012 75.9197 63.3973 76.3722 63.3973 76.929V82H61.9456V80.956H61.8859C61.7898 81.1482 61.6456 81.3371 61.4534 81.5227C61.2612 81.7083 61.0142 81.8625 60.7126 81.9851C60.411 82.1077 60.0497 82.169 59.6288 82.169ZM59.952 80.9759C60.363 80.9759 60.7143 80.8946 61.0059 80.7322C61.3009 80.5698 61.5247 80.3577 61.6771 80.0959C61.8329 79.8307 61.9108 79.5473 61.9108 79.2457V78.2614C61.8577 78.3144 61.755 78.3641 61.6025 78.4105C61.4534 78.4536 61.2827 78.4917 61.0905 78.5249C60.8982 78.5547 60.711 78.5829 60.5287 78.6094C60.3464 78.6326 60.1939 78.6525 60.0713 78.669C59.7829 78.7055 59.5194 78.7668 59.2808 78.853C59.0455 78.9392 58.8566 79.0634 58.714 79.2259C58.5748 79.3849 58.5052 79.5971 58.5052 79.8622C58.5052 80.2301 58.6411 80.5085 58.9129 80.6974C59.1847 80.883 59.531 80.9759 59.952 80.9759ZM70.2593 74.3636V75.6463H66.8438V82H65.3772V74.3636H70.2593ZM71.8303 84.8636V74.3636H73.282V75.6016H73.4063C73.4925 75.4425 73.6168 75.2585 73.7792 75.0497C73.9416 74.8409 74.167 74.6586 74.4553 74.5028C74.7437 74.3438 75.1249 74.2642 75.5988 74.2642C76.2153 74.2642 76.7655 74.42 77.2494 74.7315C77.7333 75.0431 78.1128 75.4922 78.3879 76.0788C78.6663 76.6655 78.8055 77.3714 78.8055 78.1967C78.8055 79.022 78.6679 79.7296 78.3928 80.3196C78.1178 80.9062 77.7399 81.3587 77.2593 81.6768C76.7787 81.9917 76.2302 82.1491 75.6137 82.1491C75.1497 82.1491 74.7702 82.0713 74.4752 81.9155C74.1836 81.7597 73.9549 81.5774 73.7892 81.3686C73.6234 81.1598 73.4958 80.9742 73.4063 80.8118H73.3169V84.8636H71.8303ZM73.287 78.1818C73.287 78.7187 73.3649 79.1894 73.5207 79.5938C73.6765 79.9981 73.9018 80.3146 74.1968 80.5433C74.4918 80.7687 74.8531 80.8814 75.2806 80.8814C75.7248 80.8814 76.096 80.7637 76.3943 80.5284C76.6926 80.2898 76.9179 79.9666 77.0704 79.5589C77.2262 79.1513 77.3041 78.6922 77.3041 78.1818C77.3041 77.678 77.2278 77.2256 77.0754 76.8246C76.9262 76.4235 76.7008 76.107 76.3992 75.875C76.1009 75.643 75.7281 75.527 75.2806 75.527C74.8498 75.527 74.4852 75.638 74.1869 75.8601C73.8919 76.0821 73.6682 76.392 73.5157 76.7898C73.3633 77.1875 73.287 77.6515 73.287 78.1818ZM81.1508 84.8636C80.9288 84.8636 80.7266 84.8454 80.5443 84.8089C80.362 84.7758 80.2261 84.7393 80.1366 84.6996L80.4946 83.4815C80.7664 83.5545 81.0083 83.5859 81.2204 83.576C81.4326 83.5661 81.6198 83.4865 81.7822 83.3374C81.9479 83.1882 82.0938 82.9446 82.2197 82.6065L82.4037 82.0994L79.6096 74.3636H81.2006L83.1345 80.2898H83.214L85.148 74.3636H86.7439L83.5969 83.0192C83.451 83.4169 83.2654 83.7533 83.04 84.0284C82.8147 84.3068 82.5462 84.5156 82.2346 84.6548C81.9231 84.794 81.5618 84.8636 81.1508 84.8636ZM87.6885 79.9815H89.2098C89.2297 80.2931 89.3705 80.5334 89.6324 80.7024C89.8975 80.8714 90.2406 80.956 90.6615 80.956C91.089 80.956 91.4536 80.8648 91.7552 80.6825C92.0568 80.4969 92.2077 80.2102 92.2077 79.8224C92.2077 79.5904 92.1497 79.3883 92.0336 79.2159C91.921 79.0402 91.7602 78.9044 91.5514 78.8082C91.3459 78.7121 91.1023 78.6641 90.8206 78.6641H89.5777V77.4957H90.8206C91.2415 77.4957 91.5564 77.3996 91.7652 77.2074C91.974 77.0152 92.0784 76.7749 92.0784 76.4865C92.0784 76.175 91.9657 75.9247 91.7403 75.7358C91.5183 75.5436 91.2084 75.4474 90.8106 75.4474C90.4063 75.4474 90.0699 75.5386 89.8014 75.7209C89.5329 75.8999 89.3921 76.1319 89.3788 76.4169H87.8774C87.8873 75.9893 88.0166 75.6148 88.2652 75.2933C88.5171 74.9685 88.8551 74.7166 89.2794 74.5376C89.7069 74.3554 90.1925 74.2642 90.7361 74.2642C91.3028 74.2642 91.7934 74.3554 92.2077 74.5376C92.622 74.7199 92.9418 74.9718 93.1672 75.2933C93.3959 75.6148 93.5102 75.9844 93.5102 76.402C93.5102 76.8229 93.3843 77.1676 93.1324 77.4361C92.8838 77.7012 92.559 77.8918 92.1579 78.0078V78.0874C92.4529 78.1072 92.7148 78.1967 92.9434 78.3558C93.1721 78.5149 93.3511 78.7254 93.4804 78.9872C93.6096 79.2491 93.6743 79.5457 93.6743 79.8771C93.6743 80.3445 93.545 80.7488 93.2865 81.0902C93.0313 81.4316 92.6766 81.6951 92.2226 81.8807C91.7718 82.063 91.2564 82.1541 90.6764 82.1541C90.113 82.1541 89.6075 82.0663 89.1601 81.8906C88.7159 81.7116 88.363 81.4598 88.1011 81.1349C87.8426 80.8101 87.705 80.4257 87.6885 79.9815ZM96.6659 79.9169L100.032 74.3636H101.633V82H100.176V76.4418L96.825 82H95.2093V74.3636H96.6659V79.9169ZM102.684 75.6463V74.3636H109.127V75.6463H106.636V82H105.185V75.6463H102.684ZM111.818 76.9886H114.035C114.97 76.9886 115.689 77.2206 116.193 77.6847C116.697 78.1487 116.949 78.7469 116.949 79.4794C116.949 79.9567 116.836 80.3859 116.611 80.767C116.385 81.1482 116.056 81.4498 115.621 81.6719C115.187 81.8906 114.659 82 114.035 82H110.699V74.3636H112.156V80.7173H114.035C114.463 80.7173 114.814 80.6063 115.089 80.3842C115.364 80.1589 115.502 79.8722 115.502 79.5241C115.502 79.1562 115.364 78.8563 115.089 78.6243C114.814 78.389 114.463 78.2713 114.035 78.2713H111.818V76.9886Z" fill="#04009A"/>
<defs>
<clipPath id="clip0_2345_66832">
<rect width="16" height="16" fill="white" transform="translate(19 68)"/>
</clipPath>
</defs>
</svg>
