<svg width="57" height="56" viewBox="0 0 57 56" fill="none" xmlns="http://www.w3.org/2000/svg">
<path opacity="0.4" d="M38.61 51.3337H18.3878C10.4795 51.3337 5.16675 45.7871 5.16675 37.5303V18.4727C5.16675 10.2159 10.4795 4.66699 18.3878 4.66699H38.6123C46.5207 4.66699 51.8334 10.2159 51.8334 18.4727V37.5303C51.8334 45.7871 46.5207 51.3337 38.61 51.3337" fill="#04009A"/>
<path fill-rule="evenodd" clip-rule="evenodd" d="M26.7385 20.2421C26.7385 23.4387 24.1368 26.0404 20.9401 26.0404C17.7411 26.0404 15.1418 23.4387 15.1418 20.2421C15.1418 17.0454 17.7411 14.4414 20.9401 14.4414C24.1368 14.4414 26.7385 17.0454 26.7385 20.2421ZM45.7677 32.8715C46.3114 33.3988 46.7011 34.0008 46.9577 34.6425C47.7347 36.5838 47.3311 38.9171 46.5004 40.8398C45.5157 43.1288 43.6304 44.8578 41.2551 45.6138C40.2004 45.9521 39.0944 46.0968 37.9907 46.0968H18.4351C16.4891 46.0968 14.7671 45.6441 13.3554 44.7948C12.4711 44.2628 12.3147 43.0378 12.9704 42.2398C14.0671 40.9098 15.1497 39.5751 16.2417 38.2288C18.3231 35.6528 19.7254 34.9061 21.2841 35.5618C21.9164 35.8325 22.5511 36.2408 23.2044 36.6701C24.9451 37.8228 27.3647 39.4048 30.5521 37.6875C32.7308 36.4962 33.9954 34.4576 35.0962 32.6832L35.1184 32.6475C35.1925 32.5287 35.2659 32.41 35.3392 32.2917C35.7135 31.6869 36.0821 31.0912 36.4997 30.5428C37.0177 29.8638 38.9404 27.7405 41.4254 29.2525C43.0097 30.2045 44.3421 31.4925 45.7677 32.8715Z" fill="#04009A"/>
</svg>
